<svg xmlns="http://www.w3.org/2000/svg" viewBox="0 0 62.37 62.37"><defs><style>.cls-1{fill:#4a96d1;stroke:#fff;stroke-miterlimit:10;stroke-width:0.25px;}.cls-2{fill:#fff;}</style></defs><g id="Layer_2" data-name="Layer 2"><g id="Layer_1-2" data-name="Layer 1"><circle class="cls-1" cx="31.18" cy="31.18" r="31.06"/><path class="cls-2" d="M33.44,34.83a4.39,4.39,0,0,0-.47-.27,4.64,4.64,0,0,1-1.78.36h0a4.69,4.69,0,0,1-1.79-.36,3.47,3.47,0,0,0-.46.27L15.24,43.92a.33.33,0,0,1-.13,0,1.9,1.9,0,0,0,.54.07H46.72a2.24,2.24,0,0,0,.52-.06s-.08,0-.11,0Zm13.28-16.5H15.65a2.35,2.35,0,0,0-2.35,2.35v21a2.32,2.32,0,0,0,.94,1.86.67.67,0,0,1,.26-.75l13.59-9-13.64-11a.67.67,0,0,1,.84-1L29,32.77a3.55,3.55,0,0,0,.47.32,3.32,3.32,0,0,0,3.47,0,3.55,3.55,0,0,0,.47-.32l13.68-11h0a.67.67,0,0,1,.94.1.68.68,0,0,1-.1.94l-13.64,11,13.59,9h0a.64.64,0,0,1,.26.73,2.31,2.31,0,0,0,.93-1.85v-21A2.35,2.35,0,0,0,46.72,18.33Z"/></g></g></svg>